<?xml version="1.0" standalone="no"?>
<!DOCTYPE svg PUBLIC "-//W3C//DTD SVG 20010904//EN"
 "http://www.w3.org/TR/2001/REC-SVG-20010904/DTD/svg10.dtd">
<svg version="1.0" xmlns="http://www.w3.org/2000/svg"
 width="1014.000000pt" height="1280.000000pt" viewBox="0 0 1014.000000 1280.000000"
 preserveAspectRatio="xMidYMid meet">

<g transform="translate(0.000000,1280.000000) scale(0.100000,-0.100000)"
fill="#000000" stroke="none">
<path d="M3140 9520 l0 -2930 -1065 0 -1065 0 0 -520 0 -520 1065 0 1065 0 0
-435 0 -435 -1065 0 -1065 0 0 -510 0 -510 1065 0 1065 0 0 -770 0 -770 760 0
760 0 0 770 0 770 1235 0 1235 0 0 510 0 510 -1235 0 -1235 0 0 435 0 435
1235 0 1235 0 0 520 0 520 -1235 0 -1235 0 0 499 0 499 813 5 c663 3 840 7
967 21 786 84 1418 318 1895 701 113 91 301 284 384 393 229 302 363 643 402
1021 15 142 7 426 -16 576 -100 655 -448 1198 -1005 1569 -435 290 -972 470
-1615 541 -260 29 -578 35 -1962 35 l-1383 0 0 -2930z m3105 1846 c244 -41
447 -102 620 -187 433 -210 697 -549 770 -987 26 -157 17 -461 -18 -594 -140
-531 -617 -834 -1427 -908 -67 -6 -415 -10 -827 -10 l-713 0 0 1356 0 1355
748 -4 c645 -3 761 -6 847 -21z"/>
</g>
</svg>
